<svg xmlns="http://www.w3.org/2000/svg" width="197" height="76" viewBox="0 0 197 76">
    <defs>
        <style>.a{fill:#eec548;}</style>
    </defs>
    <g transform="translate(-38 -26)">
        <rect class="a" width="197" height="76" rx="13" transform="translate(38 26)"/>
        <path d="M2.13,68V27.8H16.05V68Zm17.52,0V27.8h20.7l3.12,15.36L46.05,27.8h21.3V68H53.43V47.3h-.66L49.29,67.58H37.65L34.23,47.3h-.66V68ZM69.69,39.14V27.8h30V39.14h-7.8V68H77.97V39.14ZM119.67,68H102.09V27.8h16.98q10.38,0,14.94,4.68t4.56,14.97q0,10.29-4.38,15.42T119.67,68Zm4.86-19.86q0-5.4-1.11-7.2t-4.95-1.8h-2.46V56.66h2.46a6.143,6.143,0,0,0,4.62-1.56Q124.53,53.54,124.53,48.14Zm36.3-11.22q11.88,0,11.88,15.42,0,9.24-3.54,12.84t-12.9,3.6a119.012,119.012,0,0,1-12.42-1.02l-2.7-.36V26.6h13.44V37.88A28.244,28.244,0,0,1,160.83,36.92Zm-4.32,21q2.64,0,2.64-5.28a8.386,8.386,0,0,0-.6-3.84,2.173,2.173,0,0,0-2.04-1.02l-1.92.42v9.54A8.7,8.7,0,0,0,156.51,57.92Z"
              transform="translate(49.5 17)"/>
    </g>
</svg>
